<mxfile host="app.diagrams.net" modified="2022-05-19T15:53:12.149Z" agent="5.0 (Windows NT 10.0; Win64; x64) AppleWebKit/537.36 (KHTML, like Gecko) Chrome/101.0.4951.67 Safari/537.36" etag="J6KIHK6kiiRN7fw8QaKp" version="18.0.7" type="github">
  <diagram id="j_OQ7gTMTuMjUYhutDOx" name="Page-1">
    <mxGraphModel dx="1692" dy="863" grid="1" gridSize="10" guides="1" tooltips="1" connect="1" arrows="1" fold="1" page="1" pageScale="1" pageWidth="827" pageHeight="1169" math="0" shadow="0">
      <root>
        <mxCell id="0" />
        <mxCell id="1" parent="0" />
        <mxCell id="3mfLvI7R5a4SeBiyf97p-1" value="" style="whiteSpace=wrap;html=1;aspect=fixed;" vertex="1" parent="1">
          <mxGeometry x="179" y="190" width="470" height="470" as="geometry" />
        </mxCell>
        <mxCell id="3mfLvI7R5a4SeBiyf97p-8" value="" style="verticalLabelPosition=bottom;verticalAlign=top;html=1;shape=mxgraph.basic.patternFillRect;fillStyle=diagRev;step=5;fillStrokeWidth=0.2;fillStrokeColor=#dddddd;strokeWidth=1;opacity=90;spacing=2;fillColor=#B3B3B3;strokeColor=#36393d;rotation=90;" vertex="1" parent="1">
          <mxGeometry x="-10" y="380" width="470" height="90" as="geometry" />
        </mxCell>
        <mxCell id="3mfLvI7R5a4SeBiyf97p-9" value="" style="verticalLabelPosition=bottom;verticalAlign=top;html=1;shape=mxgraph.basic.patternFillRect;fillStyle=diagRev;step=5;fillStrokeWidth=0.2;fillStrokeColor=#dddddd;strokeWidth=1;opacity=90;spacing=2;fillColor=#B3B3B3;strokeColor=#36393d;rotation=90;" vertex="1" parent="1">
          <mxGeometry x="370" y="380" width="470" height="90" as="geometry" />
        </mxCell>
        <mxCell id="3mfLvI7R5a4SeBiyf97p-10" value="&lt;font style=&quot;font-size: 32px;&quot;&gt;Left&lt;/font&gt;" style="text;html=1;align=center;verticalAlign=middle;resizable=0;points=[];autosize=1;strokeColor=none;fillColor=none;fontSize=12;" vertex="1" parent="1">
          <mxGeometry x="190" y="410" width="70" height="30" as="geometry" />
        </mxCell>
        <mxCell id="3mfLvI7R5a4SeBiyf97p-11" value="&lt;font style=&quot;font-size: 32px;&quot;&gt;Right&lt;/font&gt;" style="text;html=1;align=center;verticalAlign=middle;resizable=0;points=[];autosize=1;strokeColor=none;fillColor=none;fontSize=12;" vertex="1" parent="1">
          <mxGeometry x="560" y="410" width="90" height="30" as="geometry" />
        </mxCell>
      </root>
    </mxGraphModel>
  </diagram>
</mxfile>
